<svg viewBox="533.1801948466053 -26.819805153394643 886.8198051533947 926.8198051533947" width="512" height="512" version="1.1" xmlns="http://www.w3.org/2000/svg">
<style>.vertex { font-family: Arial } .edge { font-family: Arial } .text { font-family: Arial }</style>
    <circle cx="1070" cy="850" r="28.284271247461902" fill="transparent" stroke="#000000" stroke-width="2" />
    <text class="edge" transform="translate(1070 850) rotate(-45)" x="0" y="-32.2842712474619" fill="#000000" dominant-baseline="text-bottom" text-anchor="middle" font-size="18px">{{ stohast_matr[0][0] }}</text>
    <path d="M 1090 870L 1077.094533420419 861.0128172447309L 1064.104305716711 852.2852154321021L 1051.0293168888752 843.8171945621134L 1037.8695669369122 835.6087546347651L 1024.6250558608217 827.659895650057L 1011.2957836606038 819.9706176079892L 997.8817503362584 812.5409205085616L 984.3829558877856 805.3708043517743L 970.7994003151854 798.4602691376272L 957.1310836184578 791.8093148661203L 943.3780057976026 785.4179415372537L 929.5401668526201 779.2861491510274L 915.6175667835101 773.4139377074414L 901.6102055902727 767.8013072064955L 887.5180832729079 762.4482576481901L 873.3411998314157 757.3547890325246L 859.079555265796 752.5209013594997L 844.733149576049 747.9465946291148L 830.3019827621745 743.6318688413703L 815.7860548241724 739.576723996266L 801.1853657620431 735.7811600938019L 786.4999155757862 732.2451771339781L 771.729704265402 728.9687751167946L 756.8747318308904 725.9519540422514L 741.9349982722513 723.1947139103484L 726.9105035894847 720.6970547210856L 711.8012477825907 718.458976474463L 696.6072308515693 716.4804791704807L 681.3284527964205 714.7615628091388L 665.9649136171442 713.302227390437L 650.5166133137405 712.1024729143755L 634.9835518862094 711.1622993809542" fill="none" stroke="#000000" stroke-width="2"></path>
    <path transform="translate(634.9835518862094 711.1622993809542) rotate(-178.0970954000988)" d="M-1, -5 L 14 0 L -1, 5 z" fill="#000000"></path>
    <text class="edge" transform="translate(857.4160712684536 751.9757817403608) rotate(18.083445383048655)" fill="#000000" x="0" y="-5" dominant-baseline="text-bottom" text-anchor="middle" font-size="18px">{{ stohast_matr[0][1] }}</text>
    <path d="M 1090 870L 1094.649074734043 845.1382160186768L 1099.0110328228911 820.2764320373535L 1103.0858742665441 795.4146480560303L 1106.873599065002 770.552864074707L 1110.374207218265 745.6910800933838L 1113.5876987263327 720.8292961120605L 1116.5140735892055 695.9675121307373L 1119.1533318068832 671.1057281494141L 1121.5054733793659 646.2439441680908L 1123.5704983066535 621.3821601867676L 1125.348406588746 596.5203762054443L 1126.8391982256435 571.6585922241211L 1128.042873217346 546.7968082427979L 1128.9594315638533 521.9350242614746L 1129.5888732651656 497.07324028015137L 1129.9311983212829 472.2114562988281L 1129.986406732205 447.3496723175049L 1129.7544984979322 422.48788833618164L 1129.2354736184643 397.6261043548584L 1128.4293320938013 372.76432037353516L 1127.3360739239433 347.9025363922119L 1125.9556991088903 323.0407524108887L 1124.2882076486421 298.17896842956543L 1122.333599543199 273.3171844482422L 1120.0918747925607 248.45540046691895L 1117.5630333967274 223.5936164855957L 1114.747075355699 198.73183250427246L 1111.6440006694756 173.87004852294922L 1108.2538093380572 149.00826454162598L 1104.5765013614437 124.14648056030273L 1100.612076739635 99.28469657897949L 1096.3605354726315 74.42291259765625" fill="none" stroke="#000000" stroke-width="2"></path>
    <path transform="translate(1096.3605354726315 74.42291259765625) rotate(-100.46881997824428)" d="M-1, -5 L 14 0 L -1, 5 z" fill="#000000"></path>
    <text class="edge" transform="translate(1130 455) rotate(-90)" fill="#000000" x="0" y="-5" dominant-baseline="text-bottom" text-anchor="middle" font-size="18px">{{ stohast_matr[0][2] }}</text>
    <path d="M 1090 870L 1102.4141492917713 860.7110246852096L 1114.6083262759337 851.2610940233883L 1126.582530952487 841.650208014536L 1138.3367633214318 831.878366658653L 1149.8710233827678 821.9455699557391L 1161.1853111364946 811.8518179057942L 1172.2796265826128 801.5971105088186L 1183.153969721122 791.181447764812L 1193.8083405520222 780.6048296737745L 1204.2427390753137 769.8672562357061L 1214.4571652909963 758.9687274506068L 1224.4516191990701 747.9092433184768L 1234.2261007995348 736.6888038393158L 1243.7806100923908 725.307409013124L 1253.115147077638 713.7650588399013L 1262.2297117552762 702.0617533196476L 1271.1243041253056 690.1974924523631L 1279.7989241877262 678.1722762380477L 1288.2535719425377 665.9861046767014L 1296.4882473897405 653.6389777683244L 1304.5029505293346 641.1308955129164L 1312.2976813613195 628.4618579104774L 1319.8724398856957 615.6318649610078L 1327.227226102463 602.640916664507L 1334.3620400116215 589.4890130209756L 1341.276881613171 576.176154030413L 1347.9717509071118 562.7023396928198L 1354.4466478934437 549.0675700081956L 1360.7015725721665 535.2718449765406L 1366.7365249432805 521.3151645978546L 1372.5515050067859 507.19752887213787L 1378.1465127626823 492.91893779939016" fill="none" stroke="#000000" stroke-width="2"></path>
    <path transform="translate(1378.1465127626823 492.91893779939016) rotate(-70.19701033104562)" d="M-1, -5 L 14 0 L -1, 5 z" fill="#000000"></path>
    <text class="edge" transform="translate(1272.2812130263374 688.6203997753687) rotate(-53.8067926944353)" fill="#000000" x="0" y="-5" dominant-baseline="text-bottom" text-anchor="middle" font-size="18px">{{ stohast_matr[0][3] }}</text>
    <path d="M 1090 870L 1079.0751564689294 847.1864137762177L 1067.9185608995201 824.5423178491309L 1056.5302132917723 802.0677122187396L 1044.9101136456857 779.7625968850438L 1033.05826196126 757.6269718480434L 1020.9746582384962 735.6608371077384L 1008.6593024773933 713.864192664129L 996.112194677952 692.2370385172151L 983.3333348401717 670.7793746669965L 970.3227229640528 649.4912011134735L 957.0803590495952 628.3725178566459L 943.6062430967988 607.4233248965138L 929.9003751056639 586.6436222330772L 915.9627550761902 566.033409866336L 901.7933830083778 545.5926877962904L 887.3922589022266 525.3214560229402L 872.7593827577368 505.21971454628545L 857.8947545749082 485.28746336632616L 842.798374353741 465.52470248306236L 827.470242094235 445.931431896494L 811.9103577963904 426.50765160662115L 796.1187214602071 407.2533616134438L 780.095333085685 388.1685619169619L 763.8401926728242 369.25325251717544L 747.3533002216247 350.5074334140845L 730.6346557320865 331.931104607689L 713.6842592042096 313.52426609798897L 696.5021106379941 295.2869178849844L 679.0882100334397 277.2190599686753L 661.4425573905468 259.3206923490617L 643.565152709315 241.59181502614356L 625.4559959897447 224.03242799992088" fill="none" stroke="#000000" stroke-width="2"></path>
    <path transform="translate(625.4559959897447 224.03242799992088) rotate(-136.64769748236327)" d="M-1, -5 L 14 0 L -1, 5 z" fill="#000000"></path>
    <text class="edge" transform="translate(877.2868133515926 511.38725590704416) rotate(53.82037955202105)" fill="#000000" x="0" y="-5" dominant-baseline="text-bottom" text-anchor="middle" font-size="18px">{{ stohast_matr[0][4] }}</text>
    <path d="M 600 710L 612.9054665795808 718.9871827552691L 625.895694283289 727.7147845678979L 638.9706831111247 736.1828054378866L 652.1304330630878 744.3912453652349L 665.3749441391783 752.340104349943L 678.7042163393962 760.0293823920108L 692.1182496637416 767.4590794914384L 705.6170441122144 774.6291956482257L 719.2005996848146 781.5397308623728L 732.8689163815422 788.1906851338797L 746.6219942023974 794.5820584627463L 760.4598331473799 800.7138508489726L 774.3824332164899 806.5860622925586L 788.3897944097273 812.1986927935045L 802.4819167270921 817.5517423518099L 816.6588001685843 822.6452109674754L 830.920444734204 827.4790986405003L 845.266850423951 832.0534053708852L 859.6980172378255 836.3681311586297L 874.2139451758276 840.423276003734L 888.8146342379569 844.2188399061981L 903.5000844242138 847.7548228660219L 918.270295734598 851.0312248832054L 933.1252681691096 854.0480459577486L 948.0650017277487 856.8052860896516L 963.0894964105153 859.3029452789144L 978.1987522174093 861.541023525537L 993.3927691484307 863.5195208295193L 1008.6715472035795 865.2384371908612L 1024.0350863828558 866.697772609563L 1039.4833866862596 867.8975270856245L 1055.0164481137906 868.8377006190458" fill="none" stroke="#000000" stroke-width="2"></path>
    <path transform="translate(1055.0164481137906 868.8377006190458) rotate(1.9029045999012069)" d="M-1, -5 L 14 0 L -1, 5 z" fill="#000000"></path>
    <text class="edge" transform="translate(832.5839287315464 828.0242182596392) rotate(18.083445383048655)" fill="#000000" x="0" y="-5" dominant-baseline="text-bottom" text-anchor="middle" font-size="18px">{{ stohast_matr[1][0] }}</text>
    <circle cx="580" cy="690" r="28.284271247461902" fill="transparent" stroke="#000000" stroke-width="2" />
    <text class="edge" transform="translate(580 690) rotate(-45)" x="0" y="-32.2842712474619" fill="#000000" dominant-baseline="text-bottom" text-anchor="middle" font-size="18px">{{ stohast_matr[1][1] }}</text>
    <path d="M 600 710L 625.0646995374993 706.9441424635469L 650.0427844618654 703.6145827495923L 674.934254773098 700.0113208581363L 699.7391104711974 696.1343567891789L 724.4573515561633 691.9836905427201L 749.0889780279958 687.5593221187598L 773.633989886695 682.8612515172981L 798.0923871322609 677.8894787383349L 822.4641697646933 672.6440037818704L 846.7493377839924 667.1248266479045L 870.9478911901581 661.331947336437L 895.0598299831905 655.265365847468L 919.0851541630896 648.9250821809978L 943.0238637298552 642.3110963370261L 966.8759586834875 635.4234083155529L 990.6414390239863 628.2620181165782L 1014.320304751352 620.8269257401023L 1037.9125558655842 613.1181311861249L 1061.418192366683 605.1356344546459L 1084.8372142546484 596.8794355456656L 1108.1696215294805 588.3495344591838L 1131.4154141911793 579.5459311952006L 1154.5745922397446 570.4686257537161L 1177.6471556751767 561.11761813473L 1200.6331044974752 551.4929083382425L 1223.5324387066405 541.5944963642536L 1246.3451583026724 531.4223822127633L 1269.071263285571 520.9765658837715L 1291.7107536553362 510.2570473772783L 1314.263629411968 499.26382669328365L 1336.7298905554665 487.99690383178756L 1359.1095370858316 476.4562787927901" fill="none" stroke="#000000" stroke-width="2"></path>
    <path transform="translate(1359.1095370858316 476.4562787927901) rotate(-28.045570627520203)" d="M-1, -5 L 14 0 L -1, 5 z" fill="#000000"></path>
    <text class="edge" transform="translate(1007.0683556573647 623.1360038772726) rotate(-17.560272051800684)" fill="#000000" x="0" y="-5" dominant-baseline="text-bottom" text-anchor="middle" font-size="18px">{{ stohast_matr[1][3] }}</text>
    <path d="M 600 710L 604.5342242669722 695.1125812530518L 608.7957715796074 680.2251625061035L 612.7846419379057 665.3377437591553L 616.5008353418671 650.450325012207L 619.9443517914915 635.5629062652588L 623.115191286779 620.6754875183105L 626.0133538277296 605.7880687713623L 628.6388394143432 590.9006500244141L 630.99164804662 576.0132312774658L 633.0717797245597 561.1258125305176L 634.8792344481626 546.2383937835693L 636.4140122174285 531.3509750366211L 637.6761130323575 516.4635562896729L 638.6655368929496 501.5761375427246L 639.3822837992047 486.68871879577637L 639.826353751123 471.8013000488281L 639.9977467487042 456.9138813018799L 639.8964627919486 442.02646255493164L 639.522501880856 427.1390438079834L 638.8758640154265 412.25162506103516L 637.95654919566 397.3642063140869L 636.7645574215567 382.4767875671387L 635.2998886931164 367.58936882019043L 633.5625430103391 352.7019500732422L 631.552520373225 337.81453132629395L 629.2698207817739 322.9271125793457L 626.7144442359859 308.03969383239746L 623.8863907358609 293.1522750854492L 620.785660281399 278.264856338501L 617.4122528726002 263.37743759155273L 613.7661685094645 248.4900188446045L 609.8474071919918 233.60260009765625" fill="none" stroke="#000000" stroke-width="2"></path>
    <path transform="translate(609.8474071919918 233.60260009765625) rotate(-106.33348221835645)" d="M-1, -5 L 14 0 L -1, 5 z" fill="#000000"></path>
    <text class="edge" transform="translate(640 455) rotate(-90)" fill="#000000" x="0" y="-5" dominant-baseline="text-bottom" text-anchor="middle" font-size="18px">{{ stohast_matr[1][4] }}</text>
    <path d="M 1090 40L 1085.350925265957 64.86178398132324L 1080.9889671771089 89.72356796264648L 1076.9141257334559 114.58535194396973L 1073.126400934998 139.44713592529297L 1069.625792781735 164.3089199066162L 1066.4123012736673 189.17070388793945L 1063.4859264107945 214.0324878692627L 1060.8466681931168 238.89427185058594L 1058.4945266206341 263.7560558319092L 1056.4295016933465 288.6178398132324L 1054.651593411254 313.47962379455566L 1053.1608017743565 338.3414077758789L 1051.957126782654 363.20319175720215L 1051.0405684361467 388.0649757385254L 1050.4111267348344 412.92675971984863L 1050.0688016787171 437.7885437011719L 1050.013593267795 462.6503276824951L 1050.2455015020678 487.51211166381836L 1050.7645263815357 512.3738956451416L 1051.5706679061987 537.2356796264648L 1052.6639260760567 562.0974636077881L 1054.0443008911097 586.9592475891113L 1055.7117923513579 611.8210315704346L 1057.666400456801 636.6828155517578L 1059.9081252074393 661.544599533081L 1062.4369666032726 686.4063835144043L 1065.252924644301 711.2681674957275L 1068.3559993305244 736.1299514770508L 1071.7461906619428 760.991735458374L 1075.4234986385563 785.8535194396973L 1079.387923260365 810.7153034210205L 1083.6394645273685 835.5770874023438" fill="none" stroke="#000000" stroke-width="2"></path>
    <path transform="translate(1083.6394645273685 835.5770874023438) rotate(79.53118002175574)" d="M-1, -5 L 14 0 L -1, 5 z" fill="#000000"></path>
    <text class="edge" transform="translate(1050 455) rotate(-90)" fill="#000000" x="0" y="-5" dominant-baseline="text-bottom" text-anchor="middle" font-size="18px">{{ stohast_matr[2][0] }}</text>
    <circle cx="1070" cy="19.999999999999996" r="28.284271247461902" fill="transparent" stroke="#000000" stroke-width="2" />
    <text class="edge" transform="translate(1070 19.999999999999996) rotate(-45)" x="0" y="-32.2842712474619" fill="#000000" dominant-baseline="text-bottom" text-anchor="middle" font-size="18px">{{ stohast_matr[2][2] }}</text>
    <path d="M 1090 40L 1095.0717156129328 54.90730880291348L 1100.365665681552 69.65587870890823L 1105.8818502058573 84.24570971798425L 1111.6202691858487 98.67680183014156L 1117.5809226215265 112.94915504538012L 1123.7638105128904 127.06276936369997L 1130.1689328599405 141.01764478510108L 1136.7962896626768 154.81378130958348L 1143.6458809210994 168.45117893714712L 1150.7177066352083 181.92983766779207L 1158.0117668050034 195.24975750151827L 1165.5280614304847 208.41093843832573L 1173.266590511652 221.4133804782145L 1181.2273540485057 234.2570836211845L 1189.4103520410458 246.9420478672358L 1197.8155844892717 259.46827321636835L 1206.4430513931843 271.8357596685822L 1215.2927527527827 284.0445072238773L 1224.3646885680675 296.0945158822537L 1233.6588588390387 307.9857856437113L 1243.1752635656958 319.71831650825027L 1252.9139027480392 331.29210847587046L 1262.8747763860688 342.7071615465719L 1273.0578844797847 353.96347572035467L 1283.4632270291868 365.0610509972187L 1294.0908040342752 375.999887377164L 1304.9406154950498 386.7799848601905L 1316.0126614115104 397.40134344629837L 1327.3069417836575 407.86396313548744L 1338.8234566114907 418.1678439277578L 1350.56220589501 428.31298582310944L 1362.5231896342157 438.2993888215424" fill="none" stroke="#000000" stroke-width="2"></path>
    <path transform="translate(1362.5231896342157 438.2993888215424) rotate(38.30094250601532)" d="M-1, -5 L 14 0 L -1, 5 z" fill="#000000"></path>
    <text class="edge" transform="translate(1207.4506611517306 273.24952774876385) rotate(54.46232220802562)" fill="#000000" x="0" y="-5" dominant-baseline="text-bottom" text-anchor="middle" font-size="18px">{{ stohast_matr[2][3] }}</text>
    <path d="M 1090 40L 1074.2777085534578 40.36065660019964L 1058.640178231043 40.980894143039535L 1043.0874090327557 41.860712628519686L 1027.6194009585956 43.000112056640084L 1012.2361540085631 44.39909242740074L 996.937668182658 46.05765374080165L 981.7239434808803 47.975795996842805L 966.5949799032301 50.153519195524225L 951.5507774497072 52.590823336845894L 936.5913361203118 55.28770842080782L 921.7166559150439 58.24417444740999L 906.9267368339033 61.460221416652416L 892.2215788768902 64.93584932853511L 877.6011820440046 68.67105818305804L 863.0655463352464 72.66584798022123L 848.6146717506156 76.92021872002468L 834.2485582901122 81.43417040246837L 819.9672059537362 86.20770302755233L 805.7706147414876 91.24081659527653L 791.6587846533666 96.53351110564098L 777.6317156893729 102.0857865586457L 763.6894078495068 107.89764295429066L 749.8318611337679 113.96908029257588L 736.0590755421565 120.30009857350136L 722.3710510746726 126.89069779706708L 708.767787731316 133.74087796327305L 695.249285512087 140.8506390721193L 681.8155444169854 148.21998112360578L 668.4665644460111 155.84890411773253L 655.2023455991643 163.7374080544995L 642.022887876445 171.88549293390676L 628.9281912778531 180.29315875595427" fill="none" stroke="#000000" stroke-width="2"></path>
    <path transform="translate(628.9281912778531 180.29315875595427) rotate(145.73601383380404)" d="M-1, -5 L 14 0 L -1, 5 z" fill="#000000"></path>
    <text class="edge" transform="translate(832.5839287315464 81.97578174036079) rotate(-18.083445383048655)" fill="#000000" x="0" y="-5" dominant-baseline="text-bottom" text-anchor="middle" font-size="18px">{{ stohast_matr[2][4] }}</text>
    <path d="M 1390 460L 1377.5858507082287 469.28897531479043L 1365.3916737240663 478.73890597661176L 1353.417469047513 488.3497919854639L 1341.6632366785682 498.121633341347L 1330.1289766172322 508.0544300442609L 1318.8146888635054 518.1481820942058L 1307.7203734173872 528.4028894911814L 1296.846030278878 538.818552235188L 1286.1916594479778 549.3951703262255L 1275.7572609246863 560.1327437642939L 1265.5428347090037 571.0312725493932L 1255.5483808009299 582.0907566815232L 1245.7738992004652 593.3111961606842L 1236.2193899076092 604.692590986876L 1226.884852922362 616.2349411600987L 1217.7702882447238 627.9382466803524L 1208.8756958746944 639.8025075476369L 1200.2010758122738 651.8277237619523L 1191.7464280574623 664.0138953232986L 1183.5117526102595 676.3610222316756L 1175.4970494706654 688.8691044870836L 1167.7023186386805 701.5381420895226L 1160.1275601143043 714.3681350389922L 1152.772773897537 727.359083335493L 1145.6379599883785 740.5109869790244L 1138.723118386829 753.823845969587L 1132.0282490928882 767.2976603071802L 1125.5533521065563 780.9324299918044L 1119.2984274278335 794.7281550234594L 1113.2634750567195 808.6848354021454L 1107.4484949932141 822.8024711278622L 1101.8534872373177 837.0810622006098" fill="none" stroke="#000000" stroke-width="2"></path>
    <path transform="translate(1101.8534872373177 837.0810622006098) rotate(109.8029896689544)" d="M-1, -5 L 14 0 L -1, 5 z" fill="#000000"></path>
    <text class="edge" transform="translate(1207.7187869736626 641.3796002246313) rotate(-53.80679269443531)" fill="#000000" x="0" y="-5" dominant-baseline="text-bottom" text-anchor="middle" font-size="18px">{{ stohast_matr[3][0] }}</text>
    <path d="M 1390 460L 1364.9353004625007 463.0558575364531L 1339.9572155381345 466.38541725040767L 1315.065745226902 469.98867914186366L 1290.2608895288026 473.8656432108211L 1265.5426484438367 478.01630945727993L 1240.9110219720042 482.44067788124016L 1216.366010113305 487.1387484827019L 1191.907612867739 492.11052126166504L 1167.5358302353065 497.3559962181296L 1143.2506622160076 502.8751733520956L 1119.052108809842 508.668052663563L 1094.9401700168096 514.734634152532L 1070.9148458369104 521.0749178190022L 1046.9761362701447 527.6889036629739L 1023.1240413165125 534.5765916844471L 999.3585609760137 541.7379818834218L 975.679695248648 549.1730742598977L 952.0874441344158 556.8818688138751L 928.5818076333171 564.8643655453541L 905.1627857453516 573.1205644543344L 881.8303784705195 581.6504655408162L 858.5845858088207 590.4540688047994L 835.4254077602554 599.5313742462839L 812.3528443248233 608.88238186527L 789.3668955025248 618.5070916617575L 766.4675612933595 628.4055036357464L 743.6548416973276 638.5776177872367L 720.9287367144291 649.0234341162285L 698.2892463446639 659.7429526227218L 675.7363705880321 670.7361733067163L 653.2701094445335 682.0030961682124L 630.8904629141684 693.54372120721" fill="none" stroke="#000000" stroke-width="2"></path>
    <path transform="translate(630.8904629141684 693.54372120721) rotate(151.9544293724799)" d="M-1, -5 L 14 0 L -1, 5 z" fill="#000000"></path>
    <text class="edge" transform="translate(982.9316443426353 546.8639961227274) rotate(-17.5602720518007)" fill="#000000" x="0" y="-5" dominant-baseline="text-bottom" text-anchor="middle" font-size="18px">{{ stohast_matr[3][1] }}</text>
    <path d="M 1390 460L 1384.9282843870672 445.09269119708654L 1379.634334318448 430.34412129109177L 1374.1181497941427 415.75429028201575L 1368.3797308141513 401.3231981698584L 1362.4190773784735 387.0508449546199L 1356.2361894871096 372.9372306363L 1349.8310671400595 358.9823552148989L 1343.2037103373232 345.1862186904165L 1336.3541190789006 331.5488210628529L 1329.2822933647917 318.07016233220793L 1321.9882331949966 304.7502424984817L 1314.4719385695153 291.58906156167427L 1306.733409488348 278.5866195217855L 1298.7726459514943 265.7429163788155L 1290.5896479589542 253.05795213276423L 1282.1844155107283 240.53172678363165L 1273.5569486068157 228.16424033141783L 1264.7072472472173 215.9554927761227L 1255.6353114319325 203.9054841177463L 1246.3411411609613 192.01421435628868L 1236.8247364343042 180.28168349174973L 1227.0860972519608 168.70789152412954L 1217.1252236139312 157.2928384534281L 1206.9421155202153 146.03652427964533L 1196.5367729708132 134.93894900278133L 1185.9091959657248 124.00011262283604L 1175.0593845049502 113.22001513980949L 1163.9873385884896 102.59865655370166L 1152.6930582163425 92.13603686451256L 1141.1765433885093 81.83215607224219L 1129.43779410499 71.68701417689054L 1117.4768103657843 61.70061117845762" fill="none" stroke="#000000" stroke-width="2"></path>
    <path transform="translate(1117.4768103657843 61.70061117845762) rotate(-141.69905749398467)" d="M-1, -5 L 14 0 L -1, 5 z" fill="#000000"></path>
    <text class="edge" transform="translate(1272.5493388482694 226.75047225123615) rotate(54.46232220802562)" fill="#000000" x="0" y="-5" dominant-baseline="text-bottom" text-anchor="middle" font-size="18px">{{ stohast_matr[3][2] }}</text>
    <circle cx="1370" cy="440" r="28.284271247461902" fill="transparent" stroke="#000000" stroke-width="2" />
    <text class="edge" transform="translate(1370 440) rotate(-45)" x="0" y="-32.2842712474619" fill="#000000" dominant-baseline="text-bottom" text-anchor="middle" font-size="18px">{{ stohast_matr[3][3] }}</text>
    <path d="M 1390 460L 1367.788343216262 447.7951452427464L 1345.4869170707534 435.863051238566L 1323.0957215634737 424.20371798745884L 1300.6147566944232 412.8171454894249L 1278.0440224636016 401.7033337444642L 1255.383518871009 390.8622827525767L 1232.6332459166456 380.2939925137624L 1209.7932036005113 369.9984630280213L 1186.863391922606 359.9756942953535L 1163.8438108829298 350.22568631575894L 1140.7344604814825 340.74843908923754L 1117.5353407182645 331.5439526157894L 1094.2464515932754 322.61222689541444L 1070.8677931065156 313.95326192811274L 1047.3993652579848 305.56705771388425L 1023.8411680476828 297.453614252729L 1000.1932014756101 289.6129315446469L 976.4554655417663 282.04500958963814L 952.6279602461516 274.7498483877025L 928.7106855887662 267.72744793884016L 904.7036415696095 260.977808243051L 880.6068281886821 254.5009293003351L 856.4202454459837 248.29681111069237L 832.1438933415145 242.36545367412288L 807.7777718752742 236.70685699062665L 783.3218810472631 231.3210210602036L 758.7762208574809 226.20794588285378L 734.1407913059279 221.3676314585772L 709.4155923926039 216.80007778737382L 684.600624117509 212.5052848692437L 659.6958864806431 208.48325270418678L 634.7013794820064 204.73398129220308" fill="none" stroke="#000000" stroke-width="2"></path>
    <path transform="translate(634.7013794820064 204.73398129220308) rotate(-172.23163259624678)" d="M-1, -5 L 14 0 L -1, 5 z" fill="#000000"></path>
    <text class="edge" transform="translate(1007.5047338152199 292.0048472537549) rotate(18.21709519782484)" fill="#000000" x="0" y="-5" dominant-baseline="text-bottom" text-anchor="middle" font-size="18px">{{ stohast_matr[3][4] }}</text>
    <path d="M 600 200L 610.9248435310706 222.81358622378227L 622.0814391004798 245.45768215086906L 633.4697867082277 267.9322877812604L 645.0898863543144 290.2374031149563L 656.9417380387398 312.37302815195665L 669.0253417615039 334.3391628922616L 681.3406975226067 356.13580733587105L 693.887805322048 377.76296148278504L 706.6666651598283 399.2206253330035L 719.6772770359472 420.50879888652656L 732.9196409504048 441.62748214335414L 746.3937569032012 462.5766751034862L 760.0996248943361 483.35637776692283L 774.0372449238098 503.966590133664L 788.2066169916222 524.4073122037097L 802.6077410977734 544.6785439770599L 817.2406172422632 564.7802854537147L 832.1052454250918 584.7125366336738L 847.201625646259 604.4752975169376L 862.529757905765 624.068568103506L 878.0896422036096 643.4923483933788L 893.8812785397929 662.7466383865562L 909.904666914315 681.8314380830382L 926.1598073271758 700.7467474828245L 942.6466997783753 719.4925665859155L 959.3653442679135 738.068895392311L 976.3157407957904 756.475733902011L 993.4978893620059 774.7130821150156L 1010.9117899665603 792.7809400313247L 1028.5574426094531 810.6793076509383L 1046.434847290685 828.4081849738565L 1064.5440040102553 845.9675720000791" fill="none" stroke="#000000" stroke-width="2"></path>
    <path transform="translate(1064.5440040102553 845.9675720000791) rotate(43.35230251763672)" d="M-1, -5 L 14 0 L -1, 5 z" fill="#000000"></path>
    <text class="edge" transform="translate(812.7131866484074 558.6127440929558) rotate(53.82037955202107)" fill="#000000" x="0" y="-5" dominant-baseline="text-bottom" text-anchor="middle" font-size="18px">{{ stohast_matr[4][0] }}</text>
    <path d="M 600 200L 595.4657757330278 214.88741874694824L 591.2042284203926 229.77483749389648L 587.2153580620943 244.66225624084473L 583.4991646581329 259.54967498779297L 580.0556482085085 274.4370937347412L 576.884808713221 289.32451248168945L 573.9866461722704 304.2119312286377L 571.3611605856568 319.09934997558594L 569.00835195338 333.9867687225342L 566.9282202754403 348.8741874694824L 565.1207655518374 363.76160621643066L 563.5859877825715 378.6490249633789L 562.3238869676425 393.53644371032715L 561.3344631070504 408.4238624572754L 560.6177162007953 423.31128120422363L 560.173646248877 438.1986999511719L 560.0022532512958 453.0861186981201L 560.1035372080514 467.97353744506836L 560.477498119144 482.8609561920166L 561.1241359845735 497.74837493896484L 562.04345080434 512.6357936859131L 563.2354425784433 527.5232124328613L 564.7001113068836 542.4106311798096L 566.4374569896609 557.2980499267578L 568.447479626775 572.185468673706L 570.7301792182261 587.0728874206543L 573.2855557640141 601.9603061676025L 576.1136092641391 616.8477249145508L 579.214339718601 631.735143661499L 582.5877471273998 646.6225624084473L 586.2338314905355 661.5099811553955L 590.1525928080082 676.3973999023438" fill="none" stroke="#000000" stroke-width="2"></path>
    <path transform="translate(590.1525928080082 676.3973999023438) rotate(73.66651778164356)" d="M-1, -5 L 14 0 L -1, 5 z" fill="#000000"></path>
    <text class="edge" transform="translate(560 455) rotate(-90)" fill="#000000" x="0" y="-5" dominant-baseline="text-bottom" text-anchor="middle" font-size="18px">{{ stohast_matr[4][1] }}</text>
    <path d="M 600 200L 615.7222914465423 199.63934339980037L 631.3598217689571 199.01910585696046L 646.9125909672445 198.13928737148032L 662.3805990414044 196.9998879433599L 677.7638459914369 195.60090757259925L 693.062331817342 193.94234625919836L 708.2760565191197 192.0242040031572L 723.4050200967699 189.8464808044758L 738.4492225502928 187.4091766631541L 753.4086638796882 184.7122915791922L 768.2833440849561 181.75582555259L 783.0732631660967 178.53977858334758L 797.7784211231098 175.06415067146492L 812.3988179559954 171.32894181694195L 826.9344536647536 167.33415201977877L 841.3853282493844 163.07978127997532L 855.7514417098878 158.56582959753163L 870.0327940462638 153.79229697244767L 884.2293852585124 148.75918340472347L 898.3412153466334 143.46648889435903L 912.3682843106271 137.91421344135432L 926.3105921504932 132.10235704570934L 940.1681388662321 126.03091970742412L 953.9409244578435 119.69990142649864L 967.6289489253274 113.10930220293292L 981.232212268684 106.25912203672694L 994.750714487913 99.1493609278807L 1008.1844555830146 91.78001887639422L 1021.5334355539889 84.15109588226748L 1034.7976544008357 76.26259194550049L 1047.977112123555 68.11450706609324L 1061.071808722147 59.70684124404574" fill="none" stroke="#000000" stroke-width="2"></path>
    <path transform="translate(1061.071808722147 59.70684124404574) rotate(-34.263986166195984)" d="M-1, -5 L 14 0 L -1, 5 z" fill="#000000"></path>
    <text class="edge" transform="translate(857.4160712684536 158.0242182596392) rotate(-18.083445383048655)" fill="#000000" x="0" y="-5" dominant-baseline="text-bottom" text-anchor="middle" font-size="18px">{{ stohast_matr[4][2] }}</text>
    <path d="M 600 200L 622.2116567837378 212.2048547572536L 644.5130829292466 224.13694876143398L 666.9042784365263 235.79628201254116L 689.3852433055769 247.1828545105751L 711.9559775363984 258.2966662555358L 734.6164811289909 269.1377172474233L 757.3667540833544 279.7060074862376L 780.2067963994887 290.0015369719787L 803.136608077394 300.0243057046465L 826.1561891170702 309.77431368424106L 849.2655395185175 319.25156091076246L 872.4646592817355 328.4560473842106L 895.7535484067246 337.38777310458556L 919.1322068934845 346.04673807188726L 942.6006347420155 354.43294228611575L 966.1588319523173 362.546385747271L 989.80679852439 370.3870684553531L 1013.5445344582338 377.9549904103619L 1037.3720397538484 385.2501516122975L 1061.289314411234 392.27255206115984L 1085.2963584303905 399.022191756949L 1109.3931718113179 405.4990706996649L 1133.5797545540163 411.7031888893076L 1157.8561066584857 417.63454632587707L 1182.222228124726 423.29314300937335L 1206.678118952737 428.67897893979637L 1231.223779142519 433.7920541171462L 1255.859208694072 438.6323685414228L 1280.584407607396 443.1999222126262L 1305.399375882491 447.4947151307563L 1330.3041135193569 451.5167472958132L 1355.2986205179936 455.2660187077969" fill="none" stroke="#000000" stroke-width="2"></path>
    <path transform="translate(1355.2986205179936 455.2660187077969) rotate(7.768367403753269)" d="M-1, -5 L 14 0 L -1, 5 z" fill="#000000"></path>
    <text class="edge" transform="translate(982.4952661847801 367.9951527462451) rotate(18.217095197824854)" fill="#000000" x="0" y="-5" dominant-baseline="text-bottom" text-anchor="middle" font-size="18px">{{ stohast_matr[4][3] }}</text>
    <circle cx="580" cy="180" r="28.284271247461902" fill="transparent" stroke="#000000" stroke-width="2" />
    <text class="edge" transform="translate(580 180) rotate(-45)" x="0" y="-32.2842712474619" fill="#000000" dominant-baseline="text-bottom" text-anchor="middle" font-size="18px">{{ stohast_matr[4][4] }}</text>
    <path d="M 600 710L 618.4300339408533 692.6752843744171L 636.6283158433679 675.1810784521386L 654.5948457075438 657.5173822331647L 672.3296235333809 639.6841957174953L 689.8326493208793 621.6815189051305L 707.1039230700392 603.5093517960702L 724.1434447808601 585.1676943903144L 740.9512144533426 566.656546687863L 757.5272320874861 547.9759086887163L 773.8714976832911 529.1257803928742L 789.9840112407574 510.1061618003365L 805.8647727598848 490.9170529111034L 821.5137822406737 471.5584537251748L 836.9310396831238 452.0303642425507L 852.1165450872352 432.3327844632311L 867.0702984530078 412.46571438721605L 881.7922997804419 392.42915401450557L 896.2825490695371 372.2231033450996L 910.5410463202937 351.8475623789982L 924.5677915327116 331.3025311162013L 938.3627847067908 310.5880095567089L 951.9260258425313 289.70399770052103L 965.257514939933 268.6504955476377L 978.357251998996 247.42750309805893L 991.2252370197205 226.03502035178465L 1003.861470002106 204.47304730881493L 1016.265950946153 182.7415839691497L 1028.4386798518613 160.84063033278903L 1040.3796567192308 138.7701863997329L 1052.0888815482617 116.53025216998127L 1063.5663543389537 94.12082764353417L 1074.8120750913072 71.54191282039162" fill="none" stroke="#000000" stroke-width="2"></path>
    <path transform="translate(1074.8120750913072 71.54191282039162) rotate(-64.28845658640536)" d="M-1, -5 L 14 0 L -1, 5 z" fill="#000000"></path>
    <text class="edge" transform="translate(877.2868133515926 398.61274409295584) rotate(-53.82037955202105)" fill="#000000" x="0" y="-5" dominant-baseline="text-bottom" text-anchor="middle" font-size="18px">{{ stohast_matr[1][2] }}</text>
    <path d="M 1090 40L 1071.5699660591467 57.32471562558296L 1053.3716841566322 74.8189215478614L 1035.4051542924562 92.48261776683529L 1017.6703764666191 110.31580428250467L 1000.1673506791207 128.31848109486953L 982.8960769299609 146.49064820392982L 965.8565552191399 164.83230560968562L 949.0487855466574 183.3434533121369L 932.4727679125139 202.0240913112836L 916.1285023167089 220.8742196071258L 900.0159887592426 239.8938381996635L 884.1352272401152 259.0829470888966L 868.4862177593263 278.4415462748252L 853.0689603168762 297.9696357574493L 837.8834549127648 317.6672155367689L 822.9297015469922 337.53428561278395L 808.2077002195581 357.57084598549443L 793.7174509304629 377.7768966549004L 779.4589536797063 398.1524376210018L 765.4322084672884 418.6974688837987L 751.6372152932092 439.4119904432911L 738.0739741574687 460.29600229947897L 724.742485060067 481.3495044523623L 711.642748001004 502.57249690194107L 698.7747629802795 523.9649796482154L 686.138529997894 545.5269526911851L 673.734049053847 567.2584160308503L 661.5613201481387 589.159369667211L 649.6203432807692 611.2298136002671L 637.9111184517384 633.4697478300187L 626.4336456610463 655.8791723564658L 615.1879249086928 678.4580871796084" fill="none" stroke="#000000" stroke-width="2"></path>
    <path transform="translate(615.1879249086928 678.4580871796084) rotate(115.71154341359461)" d="M-1, -5 L 14 0 L -1, 5 z" fill="#000000"></path>
    <text class="edge" transform="translate(812.7131866484074 351.38725590704416) rotate(-53.82037955202107)" fill="#000000" x="0" y="-5" dominant-baseline="text-bottom" text-anchor="middle" font-size="18px">{{ stohast_matr[2][1] }}</text>
    <circle cx="1090" cy="870" r="20" fill="#ffffff" stroke="#000000" stroke-width="1.5"/>
    <text class="vertex" x="1090" y="870" dominant-baseline="middle" text-anchor="middle" fill="#000000" font-size="18px">1</text>
    <circle cx="600" cy="710" r="20" fill="#ffffff" stroke="#000000" stroke-width="1.5"/>
    <text class="vertex" x="600" y="710" dominant-baseline="middle" text-anchor="middle" fill="#000000" font-size="18px">2</text>
    <circle cx="1090" cy="40" r="20" fill="#ffffff" stroke="#000000" stroke-width="1.5"/>
    <text class="vertex" x="1090" y="40" dominant-baseline="middle" text-anchor="middle" fill="#000000" font-size="18px">3</text>
    <circle cx="1390" cy="460" r="20" fill="#ffffff" stroke="#000000" stroke-width="1.5"/>
    <text class="vertex" x="1390" y="460" dominant-baseline="middle" text-anchor="middle" fill="#000000" font-size="18px">4</text>
    <circle cx="600" cy="200" r="20" fill="#ffffff" stroke="#000000" stroke-width="1.5"/>
    <text class="vertex" x="600" y="200" dominant-baseline="middle" text-anchor="middle" fill="#000000" font-size="18px">5</text>
</svg>